<svg xmlns="http://www.w3.org/2000/svg" width="40" height="24"><path d="M3.5 17.6H1c-.3 0-.5-.2-.5-.5V6.9c0-.3.2-.5.5-.5h2.5c.2 0 .5.3.5.5V17c0 .3-.3.6-.5.6zm-2-1H3V7.4H1.5v9.2z"/><path d="M11.4 17.6H9.3c-.3 0-.5-.2-.5-.5v.1c-.1.2-.3.4-.5.4H6.7c-.2 0-.4-.2-.5-.4l-.1-.2v.1c0 .3-.2.5-.5.5H3.5c-.3 0-.5-.2-.5-.5V6.9c0-.3.2-.5.5-.5h3.2c.2 0 .4.2.5.4l.3 1 .2-.9c0-.2.3-.4.5-.4h3.3c.3 0 .5.2.5.5v10.1c-.1.2-.4.5-.6.5zm-1.6-1h1.1V7.4H8.4l-.5 2.7c0 .2-.2.4-.5.4-.2 0-.4-.1-.5-.4l-.7-2.7H4v9.1h1.2v-3.8c0-.3.2-.5.4-.5s.5.1.5.4l1 4h.7l.9-4c.1-.2.3-.4.5-.4.3 0 .4.2.4.5v3.9z"/><path d="M17.3 17.6h-6c-.3 0-.5-.2-.5-.5V6.9c0-.3.2-.5.5-.5h2.8c1.7 0 2.2.2 2.8.6.4.3.9.9.9 1.9V17c0 .3-.2.6-.5.6zm-5.4-1h5V8.9c0-.5-.2-.9-.5-1.1-.4-.2-.7-.4-2.2-.4h-2.3v9.2zm2.3-2c-.3 0-.7-.2-.7-.5V9.8c0-.3.2-.5.5-.5h.1c.9 0 1 .6 1 .8v3.8c0 .2 0 .7-.9.7z"/><path d="M22.5 17.6h-5.1c-.3 0-.5-.2-.5-.5V6.9c0-.3.2-.5.5-.5h2.5c.3 0 .5.2.5.5v1.4c.3-.1.7-.3 1.1-.3.7 0 1.3.3 1.7.7.3.3.4.8.4 1.2V16c0 .6-.3 1.1-.8 1.4-.1.1-.2.2-.3.2zm-4.7-1h4.5c.1-.1.2-.3.2-.5V9.9c0-.2 0-.4-.2-.5-.2-.2-.6-.4-.9-.4-.6 0-1.1.4-1.2.5-.1.2-.4.2-.6.1-.2-.1-.3-.3-.3-.5V7.4h-1.5v9.2zm2.5-1.7c-.4 0-.6-.3-.6-.7v-2.4c0-.4.3-.6.6-.6.4 0 .6.3.6.6v2.4c0 .4-.2.7-.6.7z"/></svg>